<svg xmlns="http://www.w3.org/2000/svg" xmlns:xlink="http://www.w3.org/1999/xlink" version="1.1" width="256" height="256" viewBox="0 0 256 256" xml:space="preserve">

<defs>
</defs>
<g style="stroke: none; stroke-width: 0; stroke-dasharray: none; stroke-linecap: butt; stroke-linejoin: miter; stroke-miterlimit: 10; fill: none; fill-rule: nonzero; opacity: 1;" transform="translate(1.4065934065934016 1.4065934065934016) scale(2.81 2.81)" >
	<path d="M 73.865 88.478 L 48.914 71.127 c -2.353 -1.636 -5.476 -1.636 -7.829 0 L 16.135 88.478 c -1.914 1.331 -4.535 -0.039 -4.535 -2.37 V 6.632 C 11.6 3.521 14.121 1 17.232 1 h 55.537 c 3.11 0 5.632 2.521 5.632 5.632 v 79.477 C 78.4 88.44 75.779 89.809 73.865 88.478 z" style="stroke: none; stroke-width: 1; stroke-dasharray: none; stroke-linecap: butt; stroke-linejoin: miter; stroke-miterlimit: 10; fill: rgb(216,69,69); fill-rule: nonzero; opacity: 1;" transform=" matrix(1 0 0 1 0 0) " stroke-linecap="round" />
	<path d="M 46.552 16.928 l 4.596 9.313 c 0.252 0.511 0.739 0.865 1.303 0.947 l 10.277 1.493 c 1.419 0.206 1.986 1.95 0.959 2.952 l -7.437 7.249 c -0.408 0.398 -0.594 0.97 -0.498 1.532 l 1.756 10.236 c 0.242 1.414 -1.241 2.492 -2.511 1.824 l -9.192 -4.833 c -0.504 -0.265 -1.106 -0.265 -1.61 0 l -9.192 4.833 c -1.269 0.667 -2.753 -0.411 -2.511 -1.824 l 1.756 -10.236 c 0.096 -0.561 -0.09 -1.134 -0.498 -1.532 l -7.437 -7.249 c -1.027 -1.001 -0.46 -2.745 0.959 -2.952 l 10.277 -1.493 c 0.564 -0.082 1.051 -0.436 1.303 -0.947 l 4.596 -9.313 C 44.083 15.642 45.917 15.642 46.552 16.928 z" style="stroke: none; stroke-width: 1; stroke-dasharray: none; stroke-linecap: butt; stroke-linejoin: miter; stroke-miterlimit: 10; fill: rgb(255,222,128); fill-rule: nonzero; opacity: 1;" transform=" matrix(1 0 0 1 0 0) " stroke-linecap="round" />
	<path d="M 75.512 89.997 c -0.778 0 -1.552 -0.234 -2.218 -0.697 l 0 0 L 48.343 71.948 c -1.998 -1.393 -4.687 -1.393 -6.687 0 L 16.706 89.3 c -1.192 0.829 -2.733 0.927 -4.019 0.253 c -1.287 -0.672 -2.087 -1.992 -2.087 -3.444 V 6.632 C 10.6 2.975 13.575 0 17.231 0 h 55.537 C 76.426 0 79.4 2.975 79.4 6.632 v 79.477 c 0 1.452 -0.8 2.772 -2.087 3.444 C 76.745 89.851 76.127 89.997 75.512 89.997 z M 74.437 87.657 c 0.588 0.408 1.316 0.456 1.951 0.123 c 0.634 -0.331 1.013 -0.956 1.013 -1.672 V 6.632 C 77.4 4.078 75.322 2 72.769 2 H 17.231 C 14.677 2 12.6 4.078 12.6 6.632 v 79.477 c 0 0.716 0.379 1.341 1.013 1.672 c 0.633 0.333 1.363 0.285 1.951 -0.123 l 24.951 -17.352 c 2.683 -1.866 6.287 -1.866 8.971 0 L 74.437 87.657 z" style="stroke: none; stroke-width: 1; stroke-dasharray: none; stroke-linecap: butt; stroke-linejoin: miter; stroke-miterlimit: 10; fill: rgb(0,0,0); fill-rule: nonzero; opacity: 1;" transform=" matrix(1 0 0 1 0 0) " stroke-linecap="round" />
	<path d="M 34.194 53.675 c -0.563 0 -1.124 -0.177 -1.602 -0.524 c -0.847 -0.615 -1.263 -1.639 -1.086 -2.671 l 1.755 -10.235 c 0.041 -0.237 -0.038 -0.479 -0.21 -0.647 l -7.437 -7.249 c -0.75 -0.73 -1.014 -1.803 -0.691 -2.798 c 0.323 -0.996 1.168 -1.708 2.204 -1.859 l 10.278 -1.493 c 0.237 -0.035 0.443 -0.184 0.549 -0.399 l 4.596 -9.313 c 0.464 -0.939 1.402 -1.522 2.449 -1.522 s 1.985 0.583 2.448 1.521 v 0 l 4.596 9.313 c 0.106 0.215 0.313 0.365 0.551 0.399 l 10.277 1.493 c 1.036 0.151 1.881 0.863 2.204 1.858 s 0.059 2.068 -0.69 2.799 l -7.438 7.25 c -0.172 0.167 -0.251 0.409 -0.21 0.646 l 1.756 10.236 c 0.177 1.032 -0.239 2.056 -1.087 2.671 c -0.848 0.616 -1.949 0.693 -2.876 0.207 l -9.191 -4.832 c -0.213 -0.11 -0.466 -0.111 -0.679 0 l -9.193 4.832 C 35.064 53.57 34.628 53.675 34.194 53.675 z M 45 16.963 c -0.137 0 -0.474 0.04 -0.655 0.407 l -4.596 9.313 c -0.398 0.806 -1.166 1.364 -2.056 1.494 L 27.416 29.67 c -0.405 0.059 -0.547 0.368 -0.589 0.498 c -0.042 0.129 -0.109 0.462 0.185 0.748 l 7.437 7.249 c 0.644 0.628 0.938 1.532 0.785 2.417 l -1.755 10.235 c -0.07 0.404 0.18 0.635 0.291 0.715 c 0.109 0.08 0.406 0.247 0.769 0.056 l 9.193 -4.832 c 0.796 -0.421 1.747 -0.419 2.542 0 l 9.19 4.832 c 0.363 0.19 0.66 0.024 0.771 -0.056 s 0.36 -0.311 0.291 -0.715 l -1.756 -10.235 c -0.152 -0.885 0.141 -1.788 0.784 -2.417 l 7.438 -7.25 c 0.293 -0.286 0.227 -0.619 0.185 -0.749 s -0.184 -0.438 -0.59 -0.497 l -10.276 -1.493 c -0.889 -0.129 -1.657 -0.687 -2.057 -1.493 l -4.596 -9.314 l 0 0 C 45.474 17.003 45.137 16.963 45 16.963 z" style="stroke: none; stroke-width: 1; stroke-dasharray: none; stroke-linecap: butt; stroke-linejoin: miter; stroke-miterlimit: 10; fill: rgb(0,0,0); fill-rule: nonzero; opacity: 1;" transform=" matrix(1 0 0 1 0 0) " stroke-linecap="round" />
</g>
</svg>